<?xml version="1.0" encoding="UTF-8" standalone="no"?>
<!DOCTYPE svg PUBLIC "-//W3C//DTD SVG 1.1//EN" "http://www.w3.org/Graphics/SVG/1.1/DTD/svg11.dtd">
<svg version="1.1" xmlns="http://www.w3.org/2000/svg" xmlns:xlink="http://www.w3.org/1999/xlink" preserveAspectRatio="xMidYMid meet" viewBox="51.412214045395615 54.352441613588084 531.2951167728238 531.2951167728237" width="531.29" height="531.29"><defs><path d="M582.71 320C582.71 466.61 463.67 585.65 317.06 585.65C170.44 585.65 51.41 466.61 51.41 320C51.41 173.39 170.44 54.35 317.06 54.35C463.67 54.35 582.71 173.39 582.71 320Z" id="btNuzo4gP"></path><path d="M413.28 334.21L413.6 332.87L413.92 331.55L414.23 330.25L414.53 328.98L414.82 327.72L415.1 326.49L415.38 325.27L415.65 324.08L415.9 322.9L416.16 321.75L416.4 320.62L416.63 319.51L416.86 318.42L417.08 317.36L417.29 316.31L417.49 315.28L417.68 314.28L417.86 313.29L418.04 312.33L418.21 311.39L418.37 310.47L418.52 309.56L418.67 308.68L418.8 307.83L418.93 306.99L419.05 306.17L419.16 305.38L419.26 304.6L419.36 303.85L419.44 303.11L419.52 302.4L419.59 301.71L419.65 301.04L419.7 300.39L419.75 299.76L419.79 299.15L419.82 298.57L419.84 298L419.85 297.45L419.85 296.93L419.85 296.13L419.83 295.26L419.79 294.34L419.73 293.35L419.65 292.3L419.54 291.2L419.4 290.04L419.22 288.83L419 287.56L418.75 286.24L418.44 284.87L418.08 283.45L417.67 281.99L417.21 280.47L416.68 278.92L416.09 277.31L415.43 275.67L414.69 273.98L413.88 272.26L413 270.49L412.03 268.69L410.97 266.85L409.82 264.98L408.58 263.08L407.25 261.14L405.81 259.17L404.26 257.18L402.61 255.15L400.85 253.11L398.97 251.03L396.97 248.93L394.85 246.81L392.6 244.67L390.22 242.51L387.71 240.33L385.06 238.14L382.27 235.93L379.34 233.7L376.26 231.47L373.02 229.22L370.82 227.73L368.61 226.29L366.41 224.88L364.22 223.5L362.03 222.17L359.84 220.87L357.65 219.61L355.47 218.38L353.29 217.19L351.12 216.04L348.95 214.93L346.78 213.86L344.62 212.82L342.46 211.81L340.3 210.85L338.15 209.92L336 209.03L333.86 208.18L331.72 207.36L329.58 206.58L327.44 205.84L325.31 205.13L323.19 204.47L321.06 203.84L318.94 203.24L316.83 202.68L314.71 202.16L312.6 201.68L310.5 201.24L308.4 200.83L306.3 200.46L304.2 200.12L302.11 199.82L300.03 199.56L297.94 199.34L295.86 199.16L293.78 199.01L291.71 198.9L289.64 198.82L287.57 198.78L288.16 199.35L288.73 199.91L289.29 200.48L289.83 201.05L290.35 201.62L290.85 202.19L291.34 202.77L291.81 203.35L292.27 203.93L292.71 204.51L293.13 205.1L293.54 205.69L293.93 206.28L294.3 206.87L294.66 207.47L295 208.07L295.33 208.67L295.63 209.27L295.93 209.87L296.2 210.48L296.46 211.09L296.7 211.7L296.93 212.32L297.14 212.93L297.33 213.55L297.51 214.18L297.67 214.8L297.81 215.43L297.94 216.06L298.05 216.69L298.14 217.32L298.22 217.96L298.28 218.59L298.33 219.24L298.36 219.88L298.37 220.52L298.37 221.17L298.35 221.82L298.31 222.47L298.26 223.13L298.09 224.11L297.8 225.08L297.37 226.05L296.81 227L296.14 227.96L295.35 228.9L294.45 229.84L293.45 230.77L292.35 231.7L291.15 232.63L289.87 233.55L288.5 234.47L287.05 235.39L285.53 236.31L283.95 237.22L282.3 238.14L280.59 239.05L278.83 239.96L277.02 240.88L275.17 241.79L273.29 242.71L271.37 243.63L269.43 244.55L267.47 245.48L265.49 246.41L263.5 247.34L261.5 248.28L259.51 249.23L257.52 250.18L255.54 251.14L253.57 252.1L251.63 253.07L249.71 254.05L247.82 255.04L245.98 256.03L244.17 257.04L242.41 258.06L240.7 259.08L239.05 260.12L237.46 261.17L235.93 262.22L234.48 263.25L233.08 264.26L231.75 265.26L230.48 266.25L229.26 267.22L228.11 268.18L227.01 269.13L225.96 270.06L224.97 270.99L224.03 271.9L223.14 272.8L222.3 273.7L221.51 274.58L220.76 275.46L220.06 276.33L219.4 277.2L218.78 278.06L218.2 278.91L217.66 279.76L217.16 280.61L216.69 281.46L216.26 282.3L215.87 283.14L215.5 283.98L215.16 284.82L214.85 285.66L214.57 286.5L214.32 287.34L214.09 288.19L213.88 289.04L213.7 289.89L213.53 290.75L213.38 291.61L213.25 292.48L213.14 293.35L213.04 294.23L212.95 295.12L212.88 296.02L212.81 296.93L212.77 297.55L212.75 298.18L212.75 298.83L212.75 299.49L212.77 300.18L212.8 300.87L212.85 301.59L212.91 302.32L212.98 303.06L213.07 303.83L213.16 304.6L213.28 305.4L213.4 306.21L213.54 307.04L213.69 307.88L213.86 308.74L214.04 309.61L214.23 310.51L214.44 311.41L214.66 312.34L214.89 313.28L215.14 314.23L215.4 315.21L215.67 316.2L215.95 317.2L216.25 318.22L216.57 319.26L216.89 320.31L217.23 321.38L217.58 322.47L217.95 323.57L218.33 324.69L218.72 325.82L219.13 326.97L219.55 328.14L219.98 329.32L220.43 330.52L220.89 331.73L221.36 332.96L221.85 334.21L221.85 334.21L413.28 334.21Z" id="c6yjG9P7cC"></path><path d="M396.86 350.98L368.35 444.29L265.83 444.29L237.93 350.98L396.86 350.98Z" id="bM3AuguA1"></path><path d="M290.78 442.84L274.74 350.98" id="e2Q8CgCdY"></path><path d="M316.3 441.38L316.3 350.98" id="bH0ZbuBIr"></path><path d="M343.87 443.56L359.91 351.71" id="ipJbLKVCU"></path><path d="M369.6 246.97C366.07 244.07 362.04 241.57 357.5 239.46L392.41 163.3L422.81 187.95L453.2 212.6L378.68 256.83C376.15 253.15 373.13 249.86 369.6 246.97Z" id="b2zrJ6NRmA"></path><path d="" id="g1bYAbQVM8"></path><path d="M219.3 327.18C220.9 313.67 224.95 306.24 231.44 304.87C241.18 302.83 240.55 320.55 258.27 318.99C275.99 317.44 283.12 298.8 302.33 298.66C321.53 298.52 314.75 316.66 335.09 318.43C355.42 320.19 363.68 303.74 383.66 305.72C396.98 307.04 407.43 313.91 415.01 326.34L413.31 334.21L221.84 334.21L219.3 327.18Z" id="b2qS1IiuAU"></path></defs><g><g><use xlink:href="#btNuzo4gP" opacity="1" fill="#666666" fill-opacity="0.66"></use></g><g><use xlink:href="#c6yjG9P7cC" opacity="1" fill="#fffefb" fill-opacity="1"></use></g><g><g><use xlink:href="#bM3AuguA1" opacity="1" fill-opacity="0" stroke="#ffffff" stroke-width="10" stroke-opacity="1"></use></g></g><g><g><use xlink:href="#e2Q8CgCdY" opacity="1" fill-opacity="0" stroke="#ffffff" stroke-width="10" stroke-opacity="1"></use></g></g><g><g><use xlink:href="#bH0ZbuBIr" opacity="1" fill-opacity="0" stroke="#ffffff" stroke-width="10" stroke-opacity="1"></use></g></g><g><g><use xlink:href="#ipJbLKVCU" opacity="1" fill-opacity="0" stroke="#ffffff" stroke-width="10" stroke-opacity="1"></use></g></g><g><use xlink:href="#b2zrJ6NRmA" opacity="1" fill="#fcd552" fill-opacity="1"></use></g><g><g><use xlink:href="#g1bYAbQVM8" opacity="1" fill-opacity="0" stroke="#ffffff" stroke-width="16" stroke-opacity="1"></use></g></g><g><use xlink:href="#b2qS1IiuAU" opacity="1" fill="#fcd552" fill-opacity="1"></use></g></g></svg>